<svg width="48" height="48" viewBox="0 0 48 48" fill="none" xmlns="http://www.w3.org/2000/svg">
<g clip-path="url(#clip0_119_7769)">
<path d="M24 2C11.856 2 2 11.856 2 24.0147L2.02933 44.2253C3.83333 44.2253 4.80133 44.8413 5.564 45.34C6.18 45.736 6.576 45.9853 7.51467 45.9853C8.45333 45.9853 8.84933 45.7213 9.46533 45.34C10.2427 44.8413 11.196 44.2253 13 44.2253C14.804 44.2253 15.772 44.8413 16.5347 45.34C17.1507 45.736 17.5467 45.9853 18.4853 45.9853C19.424 45.9853 19.8347 45.7213 20.436 45.34C21.2133 44.8413 22.1813 44.2253 23.9853 44.2253C25.7893 44.2253 26.7573 44.8413 27.52 45.34C28.1213 45.736 28.532 45.9853 29.4707 45.9853C30.4093 45.9853 30.82 45.7213 31.4213 45.34C32.1987 44.8413 33.1667 44.2253 34.9707 44.2253C36.7747 44.2253 37.7427 44.8413 38.52 45.34C39.136 45.736 39.532 45.9853 40.4853 45.9853C41.4387 45.9853 41.8347 45.7213 42.4507 45.34C43.228 44.8413 44.196 44.2253 46 44.2253V24.0147C46 11.856 36.144 2 24 2Z" fill="#E6F7FF"/>
<path d="M16.9893 17.6347C16.9893 16.0065 15.6695 14.6867 14.0413 14.6867C12.4132 14.6867 11.0933 16.0065 11.0933 17.6347V21.008C11.0933 22.6361 12.4132 23.956 14.0413 23.956C15.6695 23.956 16.9893 22.6361 16.9893 21.008V17.6347Z" fill="#324660"/>
<path d="M36.9507 17.6347C36.9507 16.0065 35.6308 14.6867 34.0027 14.6867C32.3745 14.6867 31.0547 16.0065 31.0547 17.6347V21.008C31.0547 22.6361 32.3745 23.956 34.0027 23.956C35.6308 23.956 36.9507 22.6361 36.9507 21.008V17.6347Z" fill="#324660"/>
<path d="M29.4707 46C30.4093 46 30.82 45.736 31.4213 45.3547C32.1987 44.856 33.1667 44.24 34.9707 44.24C36.7747 44.24 37.7427 44.856 38.52 45.3547C39.136 45.7507 39.532 46 40.4853 46C41.4387 46 41.8347 45.736 42.4507 45.3547C43.228 44.856 44.196 44.24 46 44.24V24.0293C46 16.9747 42.6707 10.712 37.508 6.67867C45.2667 17.2973 45.6333 38.1387 25.3933 44.4013C26.332 44.6213 26.992 45.0027 27.5347 45.3547C28.136 45.7507 28.5467 46 29.4853 46H29.4707Z" fill="#AED0F0"/>
<path d="M23.9267 30.4973C25.6601 30.4973 27.0653 29.0921 27.0653 27.3587C27.0653 25.6252 25.6601 24.22 23.9267 24.22C22.1932 24.22 20.788 25.6252 20.788 27.3587C20.788 29.0921 22.1932 30.4973 23.9267 30.4973Z" fill="#324660"/>
</g>
<defs>
<clipPath id="clip0_119_7769">
<rect width="48" height="48" fill="white"/>
</clipPath>
</defs>
</svg>
