<svg viewBox="0 0 1666 946" xmlns="http://www.w3.org/2000/svg">
  <path fill="currentColor" d="M1666 27c0 73 .0 146-.3 220-9-6-13-14-12.7-24.4-.1-2.2.6-4.4.9-6.6 2.1-14 3.7-27.8 4.9-41.6 1.5-17.2 2.6-34.4 4.1-51.5.9-12.7 11-22.7 24.8-23.6 11.4-.7 23.3 7.2 26.5 18.7.6 2.5.7 5.1 1.1 7.7-2 .3-3.7.3-5.2-.2-13.9-4.3-30.7 8.4-30.4 24.9-.1 8.2 1.4 16.5 2.6 24.6.3 2 2.3 4.3 4.1 5.4 7.7 4.6 12 11.2 13.1 20-1 7.8-2.1 15.5-3.2 23.2-1.1-1.1-1.6-2.2-1.7-3.3-1.8-11.4-3.6-22.9-5.1-34.3-1.4-10.7-4.1-20.3-14.3-26.4-2-1.2-3.2-5-3.6-7.7-3.2-21.6-6.3-43.2-9.2-64.8-2.5-18.4-5.1-36.7-6.7-55.2-1-11.8-11.8-24.7-28.8-23.2-11 .9-21.3 12.5-21.3 24.9 0 13.2.1 26.4-.1 39.5-.1 7.2-.3 14.3-.9 21.4-1.3 11.8-3.3 23.6-4.6 35.4-.4 3.8.4 7.8 1.4 11.6 1 3.9 3.5 7.5 4.3 11.4.9 5.1.4 10.5 1.2 15.6 1 6.4 2.7 12.7 4.4 19.2 10.6-10.8 22.5-12.9 34.8-8 12.4 4.9 18.7 15.2 19 28.4 4.1-.9 7.6-1.8 11.2-2.5 20-3.6 35.5 14.8 33.2 32.9-2 15.2-4.8 30.4-7.7 45.5-6.7 34.2-15.4 68-29.2 100.1-7.2 16.7-15 33-22.2 49.7-2.8 6.4-5.3 13.4-11.8 16.7-12.7 6.6-25.8 3.2-39.7-4.9-.3.8-.9 2-1.2 3.2-2.3 10.9-4.3 21.8-7 32.5-6.9 27.5-11.6 55.6-22 82.1-7.3 18.7-26.7 24.3-42.2 13.5-2.3-1.6-4.3-3.8-6.5-5.7-6.5 18.7-12.7 37.1-19.3 55.3-10.9 29.6-22 59.1-33.1 88.7-8.2 21.6-17 42.9-24.8 64.7-3.6 10-6.5 20.1-14.1 28.1-9 9.5-17.6 19.5-29.6 25.6-6 3-10.4 1.6-14.3-3.8-1.1-1.5-2.6-2.7-4-4 .0 17 .0 34-.1 51-145 .4-290 .4-435.4 0-1.5-6.6-3.7-12.7-5.4-19.1-1.2-4.7 1.4-5.7 5.8-5.7 255.1-.1 510.1-.1 765.1 0 .4 0 1.8-.1 3.5-.2-3.4-4.4-10.8-7.8-17.3-8.8-15-2.3-30-2.3-45.1-1.1-16.5 1.1-33.1 1.4-49.7 1.9-13 1.5-25.9.7-38.9.3-26.8-.4-53.5-.6-80.3-1-14.1-.2-28.3-.6-42.4-1.2-2.5-.1-6 .9-7.4 2.8-7.5 10.2-17.4 12.6-29.4 11.4-3.5-.3-7.4 2.7-11.1 4.2-260.3 0-520.6 0-780.8 0-260.3 0-520.5 0-780.8 0 .4-306.1.4-612.1 0-918.2.9-.6 1.4-.6 1.9-.6 552.7 0 1105.4 0 1658.1-.0 1.5 0 3 .1 4.5.2zM852.2 462.5c0 49.6 0 99.2 0 148.9 18.7 0 36.9 0 55.6 0 0-30.4 0-60.5 0-90.8 1.9-.1 3.4-.2 4.8-.2 24.7 0 49.3-.1 74 .1 14.8.1 29.4-1.2 43.7-5.5 39-11.7 60.9-44.8 64.4-80.1 1.4-14.4.2-28.8-3.9-42.8-7.4-25.8-22.5-45.4-46.7-57.7-19.1-9.7-39.7-12.5-60.7-12.7-42-1.4-84-1.1-126 .0-1.6 0-3.2 0-5.2 0 0 47.1 0 93.5 0 140.9zm272.5-74.8c-9.4 7.7-20.6 10.8-32.3 11-26.8.5-53.6-.2-80.4.2-1.3 0-2.5-.2-3.6-.3 0 30.1 0 59.8 0 89.9 1.9 0 3.3 0 4.8 0 26.3-.4 52.6.2 78.9-.6 22-.7 42.3-9.2 46.8-36.4 2.6-16 1.7-30.7-11.9-42.1zM1123 495.3c-.1.3-.3.6-.5.9-12.8 33.5-25.7 67-38.5 100.5-1.9 5-3.7 10-5.9 15.8 2.8 0 4.6 0 6.4-.0 15.7 0 31.3-.2 47 .0 3.5.1 5.3-1.6 6.7-5.3 4.9-13.3 10-26.5 15.1-39.7 24.1-62.4 48.2-124.8 72.5-187.2.6-1.6 2.8-3.2 4.6-3.8 3.1-1 4 1.6 4.9 4.1 28.7 75.6 57.4 151.2 86 226.9 1.2 3.1 2.5 4 5.7 4 17.6-.1 35.3-.0 53 .0 1.2 0 2.4.3 3.8.6-.3-1.2-.5-1.8-.7-2.4-12.2-31.3-24.5-62.6-36.6-94-18.3-47.3-36.2-94.8-54.8-142-4.4-11.3-9.5-22.6-16.2-32.7-7.3-10.8-18.4-17.2-32-18.8-12.8-1.5-25.4-.8-37.7 4-17.2 6.7-26.3 20.7-32.5 36.9-17.2 44.6-34.1 89.2-51.3 134.7zM264.8 520.8c1.3 4.4 2.5 8.9 4 13.2 18.2 52.5 59.5 77.5 107.9 78.8 43 1.3 86 .3 129-1.7 1.4 0 2.9.2 4.4.3 0-17.9 0-35.5 0-53.5-2.2 0-4 0-5.8 0-32.7 0-65.3.2-98-1.2-12.6-.1-25.3-.8-37.7-2.7-14.9-2.3-27.4-9.9-36.2-22.5-9.7-13.9-13.6-29.8-15.5-46.5-2.6-22.6-1.2-44.8 6-66.4 6.3-19 18-33.5 37.6-40.1 13-4.5 26.7-5.4 40.3-5.6 34.7-.3 69.3-.1 104 .0 1.8 0 3.6 0 5.5 0 0-18.6 0-36.7 0-55.1-2 0-3.7 0-5.3 0-39.5.0-79 .2-118.5-.2-10.9-.1-21.8-1.7-32.5-3.8-39.6-7.8-66.3-31.3-81.6-68.3-9.6-23.1-13.2-47.4-13.3-72.2-.1-18.6 1-37.1 5.7-55.9zM559.7 512c-13.1 33.5-26.1 67-39.4 100.9 20.6 0 40 0 59.3 0 19.1-49.8 38.1-99.3 57.2-148.8 10.8-28 21.6-55.9 32.5-83.8.7-1.8 3-4.2 4.6-4.2 1.4-.1 3.6 2.4 4.4 4.2 3.4 7.7 6.5 15.5 9.6 23.3 27 68.3 54 136.7 80.7 205.1 1.2 3 2.7 3.3 5.1 3.3 17.7-.1 35.3-.1 53 .0.9 0 1.8.3 3 .6-.3-1.3-.4-2.3-.8-3.2-13.5-33.8-27-67.6-40.5-101.5-19.6-49.3-39.2-98.7-58.8-148-5.4-13.7-12.3-26.3-26.3-33-12.1-5.7-24.9-6.9-38.3-5.7-15.7 1.4-27.5 8.5-36.7 20.8-8.8 11.7-12.7 25.7-17.8 39-17 43.8-33.8 87.6-50.8 112.2zM1201.9 735.6c1.6 15.3 17.8 27.4 35.2 23.9 18.7-3.7 25.7-27.8 17.5-42.6-6.2-11.1-21.1-18.4-34.5-13.9-12.2 4.9-20.4 17.4-18.2 31.6z"/>
</svg>