<?xml version="1.0" encoding="UTF-8"?>
<svg xmlns="http://www.w3.org/2000/svg" xmlns:xlink="http://www.w3.org/1999/xlink" width="889pt" height="445pt" viewBox="0 0 889 350" version="1.1">
<g id="surface1">
<path style="fill:rgb(81.25%,7.835388%,25.097656%);fill-opacity:1;" d="M 94.835938 41.554688 L 137.867188 0.648438 L 137.867188 266.898438 L 137.992188 266.945313 C 134.671875 321.757813 14.105469 331.496094 1.019531 268.253906 L 0.972656 268.269531 L 0.972656 268.042969 C 0.75 266.9375 0.550781 265.816406 0.394531 264.671875 L 0.972656 264.496094 L 0.972656 209.167969 L 44.601563 175.640625 L 44.601563 251.738281 C 48.910156 284.476563 93.582031 282.644531 94.777344 250.835938 L 94.835938 250.855469 Z"/>
<path style="fill:rgb(81.25%,7.835388%,25.097656%);fill-opacity:1;" d="M 158.617188 206.09375 L 197.789063 175.640625 L 197.789063 254.710938 L 197.949219 254.625 C 199.074219 283.183594 240.378906 284.917969 251.128906 258.566406 L 251.128906 205.03125 L 290.296875 174.578125 L 290.296875 305.449219 L 251.128906 305.449219 L 251.128906 290.625 C 210.070313 321.394531 164.578125 310.378906 158.734375 276.265625 L 158.617188 276.320313 Z"/>
<path style="fill:rgb(81.25%,7.835388%,25.097656%);fill-opacity:1;" d="M 350.097656 112.335938 L 310.925781 71.429688 L 310.925781 305.449219 L 350.097656 305.449219 L 350.097656 293.921875 C 361.765625 305.890625 377.554688 313.238281 394.933594 313.238281 C 430.855469 313.238281 459.976563 281.855469 459.976563 243.148438 C 459.976563 204.4375 430.855469 173.058594 394.933594 173.058594 C 377.554688 173.058594 361.765625 180.40625 350.097656 192.375 Z M 384.722656 204.472656 C 406.078125 204.472656 423.394531 221.789063 423.394531 243.148438 C 423.394531 264.507813 406.078125 281.824219 384.722656 281.824219 C 363.363281 281.824219 346.046875 264.507813 346.046875 243.148438 C 346.046875 221.789063 363.363281 204.472656 384.722656 204.472656 Z"/>
<path style="fill:rgb(81.25%,7.835388%,25.097656%);fill-opacity:1;" d="M 540.402344 112.328125 L 579.574219 71.421875 L 579.574219 305.449219 L 540.402344 305.449219 Z"/>
<path style="fill:rgb(81.25%,7.835388%,25.097656%);fill-opacity:1;" d="M 480.601563 210.964844 L 519.773438 170.0625 L 519.773438 305.449219 L 480.601563 305.449219 Z"/>
</g>
</svg>
